<svg width="68" height="68" viewBox="0 0 68 68" fill="none" xmlns="http://www.w3.org/2000/svg">
<circle cx="34" cy="34" r="34" fill="#04BBF2"/>
<path d="M37.1071 15.5215C37.4897 16.5446 37.8658 17.5698 38.2613 18.5886C38.2935 18.6745 38.4461 18.7433 38.5536 18.767C40.4643 19.1753 42.2397 19.9104 43.8775 20.9743C44.0688 21.099 44.2171 21.099 44.4169 21.0066C45.2552 20.6218 46.1063 20.2629 46.9424 19.876C47.153 19.7793 47.282 19.7857 47.4496 19.9577C48.1976 20.725 48.9563 21.4816 49.7236 22.2317C49.8719 22.3778 49.8913 22.4875 49.8053 22.6744C49.4141 23.5234 49.0466 24.3832 48.6554 25.2321C48.5565 25.4471 48.5716 25.6061 48.7005 25.8082C49.7473 27.4266 50.4802 29.1762 50.8735 31.0654C50.9186 31.2804 51.0175 31.3964 51.2303 31.4759C52.1072 31.7962 52.9798 32.1336 53.8482 32.4797C53.9578 32.5227 54.104 32.6645 54.1061 32.7634C54.1233 33.9584 54.1168 35.1534 54.1168 36.3635C53.1668 36.731 52.2319 37.1093 51.284 37.4489C51.0089 37.5478 50.9144 37.7025 50.8585 37.9669C50.4888 39.6778 49.8397 41.2769 48.9133 42.8093C48.8424 42.704 48.7779 42.6245 48.7285 42.5385C47.9031 41.1114 47.0735 39.6842 46.2632 38.2485C46.1751 38.0916 46.1471 37.8465 46.1966 37.6703C48.0278 31.1901 44.0516 24.6282 37.4488 23.2483C31.2631 21.9566 25.03 26.1628 23.9403 32.3636C22.986 37.7971 25.7565 42.9061 30.8203 45.0554C30.8977 45.0876 30.9729 45.1285 31.0696 45.1758C30.4334 46.5793 29.3544 47.7485 29.0106 49.3669C28.1573 48.8962 27.3255 48.4492 26.5066 47.9742C26.311 47.8603 26.167 47.8452 25.9671 47.9376C25.116 48.3267 24.2562 48.6942 23.4094 49.0875C23.2074 49.18 23.087 49.1563 22.9323 48.9994C22.1821 48.2321 21.4256 47.4734 20.6583 46.7254C20.4906 46.5621 20.4992 46.4374 20.5852 46.2483C20.9699 45.41 21.3332 44.561 21.7179 43.7228C21.8146 43.5122 21.8146 43.3531 21.6814 43.1468C20.6346 41.5305 19.906 39.7788 19.4955 37.8938C19.4654 37.752 19.3472 37.5671 19.2225 37.5156C18.2424 37.1201 17.2494 36.7547 16.2607 36.3786C16.2607 35.0976 16.2607 33.8144 16.2607 32.5334C16.3209 32.5291 16.3854 32.5356 16.4391 32.5162C17.3698 32.1594 18.3005 31.8091 19.2225 31.4308C19.3472 31.3792 19.4654 31.1965 19.4955 31.0547C19.906 29.1848 20.6217 27.4417 21.6642 25.8361C21.8125 25.6083 21.8125 25.432 21.7028 25.1956C21.3203 24.3703 20.9635 23.532 20.5852 22.7045C20.4971 22.5132 20.4928 22.3907 20.6583 22.2295C21.4256 21.4816 22.1843 20.725 22.9323 19.9555C23.102 19.7815 23.2353 19.7836 23.4416 19.8782C24.2906 20.2672 25.1461 20.6476 26.0058 21.0087C26.1348 21.0624 26.3518 21.0582 26.4657 20.9829C28.1229 19.9276 29.9025 19.1818 31.824 18.7691C31.9315 18.7455 32.0798 18.6767 32.1142 18.5907C32.5096 17.5741 32.8858 16.5489 33.2662 15.5258C34.5472 15.5258 35.8304 15.5258 37.1114 15.5258L37.1071 15.5215Z" fill="white"/>
<path d="M40.6408 52.184C38.0294 52.184 35.418 52.1883 32.8065 52.184C31.4546 52.1797 30.4767 51.3651 30.266 50.0777C30.1629 49.45 30.3584 48.8912 30.6701 48.3539C32.7592 44.743 34.8441 41.13 36.9289 37.5191C37.4512 36.6143 37.9714 35.7051 38.5001 34.8024C39.549 33.012 41.8015 32.9991 42.8396 34.7895C45.4682 39.3246 48.0883 43.8639 50.704 48.4076C51.7464 50.2195 50.6073 52.1775 48.5138 52.1818C45.8895 52.1883 43.2673 52.1818 40.643 52.1818L40.6408 52.184ZM39.6629 41.9102C39.6994 41.9102 39.736 41.9102 39.7703 41.9102C39.7703 42.9204 39.7639 43.9306 39.7725 44.9386C39.7768 45.5791 40.1357 45.9832 40.6709 45.9853C41.1997 45.9853 41.5414 45.6156 41.5651 44.9794C41.6424 42.9849 41.7134 40.9903 41.78 38.9957C41.8036 38.2585 41.464 37.934 40.6924 37.934C39.8929 37.934 39.5339 38.2585 39.5554 38.9936C39.5834 39.9672 39.6263 40.9387 39.6629 41.9124V41.9102ZM39.5361 49.1728C39.5339 49.8047 40.0498 50.3313 40.6752 50.3291C41.2942 50.3291 41.8294 49.7853 41.823 49.1706C41.8165 48.5581 41.3071 48.0508 40.6903 48.0444C40.0455 48.0379 39.5382 48.5344 39.5361 49.1749V49.1728Z" fill="white"/>
</svg>
