<svg width="59" height="59" viewBox="0 0 59 59" fill="none" xmlns="http://www.w3.org/2000/svg">
<circle cx="29.5" cy="29.5" r="29.5" fill="#04BBF2"/>
<path d="M28.5639 14.4688C29.1903 14.4688 29.8167 14.4688 30.4432 14.4688C30.9545 14.5369 31.4702 14.5867 31.9787 14.6747C34.8452 15.169 37.3765 16.3779 39.5229 18.3381C42.7133 21.2544 44.4179 24.8823 44.5244 29.2134C44.6068 32.5799 43.6366 35.6539 41.6138 38.3457C38.6394 42.3046 34.6535 44.4026 29.6889 44.5205C26.6221 44.593 23.7896 43.7407 21.2469 42.0233C17.6957 39.6255 15.4968 36.3144 14.7056 32.0913C14.6033 31.5458 14.5494 30.9904 14.4727 30.4393C14.4727 29.8128 14.4727 29.1864 14.4727 28.56C14.4897 28.4847 14.5153 28.4094 14.521 28.3327C14.7468 25.4931 15.6971 22.9178 17.3989 20.6379C19.8009 17.4191 22.9799 15.4176 26.9431 14.6974C27.48 14.5994 28.0241 14.544 28.5639 14.4688ZM30.9176 25.8454C30.0412 26.2829 29.1789 26.6991 28.3295 27.138C27.4104 27.6125 26.9118 28.3838 26.8678 29.4151C26.8209 30.5273 27.4729 31.5089 28.4943 31.9393C29.4815 32.3541 30.6193 32.1268 31.3878 31.3441C33.1847 29.5159 34.9759 27.6821 36.7686 25.8497C37.5754 25.0258 38.3822 24.2005 39.1862 23.3794C35.9404 18.3566 29.5284 16.6094 24.2399 19.3339C18.9585 22.0541 16.6403 28.4236 18.9458 33.9365C21.2469 39.4409 27.4772 42.2747 33.1364 40.3528C38.7757 38.4366 41.3354 33.0373 40.9079 28.6352H37.4476V30.3895H39.1479C38.9476 32.3938 38.1905 34.1268 36.8794 35.7263C36.4816 35.3058 36.1038 34.9038 35.7501 34.5288C35.3339 34.945 34.9347 35.3442 34.4844 35.7931C34.868 36.1553 35.2671 36.5346 35.6762 36.9209C34.1165 38.1894 32.3779 38.9068 30.3792 39.0999V37.4479H28.6122V39.073C27.0965 39.1014 24.4004 37.9891 23.3194 36.874C23.7172 36.5033 24.1163 36.1311 24.497 35.7746C24.0623 35.3399 23.6575 34.9351 23.22 34.4962C22.8592 34.8797 22.4856 35.2774 22.095 35.6936C20.8094 34.1226 20.0466 32.3896 19.8549 30.3725H21.5509V28.604H19.9287C20.1077 26.817 21.5041 24.3695 24.3024 23.5684C26.9402 22.8141 29.5852 23.9505 30.9148 25.8454H30.9176Z" fill="white"/>
<path d="M36.643 23.0034C35.2623 23.6895 33.9072 24.3628 32.5606 25.0333C30.1969 22.0048 27.1897 20.9437 23.4766 21.975C27.0533 18.8513 33.1799 19.0701 36.643 23.0048V23.0034Z" fill="white"/>
<path d="M33.6826 26.6055C33.3503 26.9066 33.0037 27.1936 32.6883 27.5103C31.8403 28.3612 31.0107 29.2291 30.1627 30.08C29.6499 30.5942 28.826 30.3811 28.6513 29.705C28.5447 29.293 28.7436 28.8967 29.1811 28.678C30.4809 28.0288 31.782 27.3839 33.0832 26.7376C33.2466 26.6566 33.4113 26.5771 33.5761 26.4961C33.6116 26.533 33.6471 26.5685 33.6826 26.6055Z" fill="white"/>
</svg>
