<svg width="67" height="67" viewBox="0 0 67 67" fill="none" xmlns="http://www.w3.org/2000/svg">
<circle cx="33.5" cy="33.5" r="33.5" fill="#04BBF2"/>
<path d="M34.193 50.8216C30.9168 50.8216 27.6422 50.8233 24.366 50.8216C22.1766 50.8199 21 49.6415 21 47.4522C21 42.9579 21 38.4636 21 33.9693C21 31.7851 22.1801 30.6068 24.3711 30.6068C30.9634 30.605 37.5539 30.605 44.1461 30.6068C46.3009 30.6068 47.4741 31.7868 47.4741 33.9451C47.4741 38.4791 47.4741 43.0131 47.4741 47.5471C47.4741 49.6174 46.2767 50.8182 44.2013 50.8216C40.8663 50.8268 37.5297 50.8216 34.1948 50.8216H34.193ZM34.3345 45.0661C34.8141 45.0661 35.2938 45.0799 35.7717 45.0627C36.391 45.0403 36.6326 44.7401 36.5308 44.1276C36.429 43.5186 36.3358 42.9061 36.1909 42.3057C36.0908 41.8882 36.1926 41.588 36.479 41.2792C37.157 40.5477 37.4296 39.6678 37.2554 38.6827C37.0363 37.4509 36.0425 36.5313 34.7693 36.3398C33.5599 36.1586 32.3781 36.7383 31.788 37.8011C31.2049 38.8518 31.3602 40.2061 32.2314 41.1291C32.5955 41.5138 32.68 41.8779 32.5351 42.3713C32.3729 42.9251 32.2711 43.4962 32.159 44.0638C32.0244 44.747 32.2642 45.0454 32.9578 45.0644C33.4167 45.0765 33.8756 45.0661 34.3345 45.0644V45.0661Z" fill="white"/>
<path d="M44.0185 28.5616H39.6035C39.6035 28.3252 39.6035 28.094 39.6035 27.8628C39.5966 26.0858 39.6415 24.3071 39.569 22.5335C39.4534 19.6903 36.9898 17.4233 34.1483 17.463C31.3827 17.501 28.9984 19.8283 28.8949 22.5991C28.8742 23.177 28.8949 23.7567 28.8776 24.3347C28.8397 25.5855 27.9908 26.4964 26.8159 26.562C25.6341 26.6293 24.4678 25.7235 24.3833 24.5469C24.1142 20.7945 25.1804 17.5372 28.2255 15.1632C31.1895 12.8531 34.5192 12.3821 37.9835 13.8037C41.4444 15.2236 43.5665 17.884 43.9736 21.614C44.2221 23.8948 44.0202 26.2239 44.0202 28.5616H44.0185Z" fill="white"/>
</svg>
