<svg width="74" height="74" viewBox="0 0 74 74" fill="none" xmlns="http://www.w3.org/2000/svg">
<circle cx="37" cy="37" r="37" fill="#04BBF2"/>
<path fill-rule="evenodd" clip-rule="evenodd" d="M33.7984 20.3669V27.3452C30.8334 27.0464 28.3459 27.9529 26.4277 30.2251C25.0538 31.8511 24.4461 33.766 24.588 35.8879C24.9035 40.6191 29.189 44.0098 33.77 43.362V50.3187C33.747 50.3213 33.7228 50.3249 33.6979 50.3286C33.6433 50.3367 33.5852 50.3454 33.5279 50.3454C33.297 50.3458 33.0661 50.3463 32.8353 50.3468C32.0283 50.3487 31.2218 50.3506 30.4144 50.3454C29.6681 50.3404 29.194 49.8629 29.1857 49.1167C29.1839 48.9594 29.1849 48.8021 29.1859 48.6449V48.6448V48.6447V48.6447V48.6446C29.1877 48.3664 29.1895 48.0884 29.1756 47.8112C29.1706 47.7043 29.0772 47.5474 28.9853 47.509C28.339 47.2407 27.6878 46.9843 26.9984 46.7129L26.9983 46.7129L26.9976 46.7127L26.9937 46.7111C26.7924 46.6319 26.5879 46.5514 26.3793 46.4689C26.2961 46.5558 26.2089 46.6481 26.1183 46.7437L26.1179 46.7441C25.887 46.9882 25.6349 47.2546 25.376 47.5123C24.8217 48.0632 24.1623 48.0666 23.613 47.5207C22.5679 46.4823 21.5262 45.4405 20.4878 44.3971C19.9268 43.8328 19.9369 43.1801 20.5045 42.6058C20.671 42.4375 20.8376 42.2701 21.0042 42.1027L21.0053 42.1016L21.0066 42.1003C21.1731 41.933 21.3396 41.7656 21.5062 41.5974C21.5228 41.5791 21.5329 41.554 21.5128 41.5874C21.432 41.3818 21.3522 41.1782 21.273 40.976L21.2725 40.9746L21.2725 40.9745L21.2724 40.9743C21.0084 40.3002 20.751 39.643 20.4828 38.9897C20.4494 38.9063 20.2991 38.8311 20.199 38.8244C19.8667 38.8044 19.5312 38.7927 19.2006 38.8211C18.4844 38.8846 17.9585 38.6341 17.6514 37.9697V32.7426C17.9585 32.0798 18.4844 31.8277 19.2006 31.8912C19.5312 31.9212 19.8667 31.9129 20.199 31.8862C20.3041 31.8778 20.4561 31.781 20.4945 31.6875C20.7731 31.0164 21.0388 30.3409 21.3124 29.6456C21.3797 29.4744 21.4476 29.302 21.5162 29.1282C21.5345 29.1616 21.5262 29.1366 21.5095 29.1182C21.3726 28.98 21.2352 28.8423 21.0977 28.7046L21.0975 28.7044L21.0974 28.7042L21.0973 28.7042C20.8913 28.4978 20.6853 28.2914 20.4811 28.0831C19.9385 27.5289 19.9369 26.8728 20.4844 26.3202C21.5228 25.2768 22.5646 24.235 23.608 23.1983C24.1606 22.6507 24.8184 22.6491 25.371 23.195C25.6164 23.437 25.8549 23.6859 26.078 23.9185L26.078 23.9186L26.078 23.9186C26.1858 24.0309 26.2898 24.1395 26.3893 24.2417C26.6265 24.1477 26.8593 24.0561 27.0887 23.9658L27.089 23.9657L27.0902 23.9652L27.0902 23.9652C27.7401 23.7094 28.3625 23.4644 28.9803 23.2067C29.0738 23.1683 29.1706 23.0163 29.179 22.9095C29.204 22.5789 29.2124 22.2417 29.184 21.9128C29.1206 21.1983 29.3693 20.6724 30.0354 20.3652H33.8051L33.7984 20.3669ZM36.1064 20.3691H47.7977V28.2457C47.7977 29.1455 48.2434 29.5929 49.1399 29.5929H56.5991H57.0281V30.0236V48.967C57.0281 49.9152 56.5941 50.3476 55.6425 50.3476H36.5338H36.1064V20.3691ZM45.4554 31.9001H39.6924C38.9445 31.9001 38.422 32.3709 38.4153 33.0387C38.407 33.7215 38.9362 34.2023 39.7058 34.204C40.3035 34.2062 40.9011 34.2054 41.4988 34.2047C41.7976 34.2043 42.0965 34.204 42.3953 34.204C43.1219 34.204 43.8486 34.2037 44.5752 34.2035C46.7551 34.2029 48.935 34.2023 51.1149 34.2073C51.6508 34.2073 52.0698 34.022 52.3019 33.5262C52.6708 32.7398 52.0932 31.9034 51.1783 31.9001C49.8426 31.8954 48.5069 31.8965 47.1712 31.8975C46.5987 31.898 46.0262 31.8984 45.4538 31.8984L45.4554 31.9001ZM45.4087 36.5128C44.8634 36.5128 44.3182 36.5131 43.7729 36.5134H43.7711C42.4088 36.514 41.0464 36.5147 39.6841 36.5111C39.1432 36.5111 38.7342 36.7198 38.5121 37.2157C38.1582 38.0036 38.7509 38.8167 39.6758 38.8183C43.4788 38.8217 47.2818 38.82 51.0848 38.8183C51.8895 38.8183 52.4204 38.3492 52.4121 37.6514C52.4037 36.9686 51.8795 36.5145 51.0949 36.5145H45.4087V36.5128ZM45.377 43.4311C45.9261 43.4311 46.4751 43.4308 47.024 43.4305H47.026H47.0262H47.0263C48.3975 43.4298 49.7683 43.4291 51.1399 43.4327C51.6792 43.4327 52.0915 43.2274 52.3136 42.7316C52.6675 41.9419 52.0782 41.1272 51.155 41.1272C47.3269 41.1239 43.4971 41.1239 39.6691 41.1272C38.9312 41.1272 38.4086 41.6197 38.4153 42.2908C38.422 42.9586 38.9445 43.4311 39.6908 43.4311C40.9535 43.4333 42.2162 43.4325 43.4795 43.4318H43.4798H43.4802H43.4806L43.4899 43.4318C44.1188 43.4314 44.7478 43.4311 45.377 43.4311ZM41.1839 27.2866L41.1831 27.2866C40.6714 27.2859 40.1598 27.2852 39.649 27.2874C38.9362 27.2924 38.4203 27.7749 38.4153 28.4293C38.4103 29.0837 38.9262 29.5879 39.6307 29.5896C41.1783 29.5962 42.7259 29.5962 44.2751 29.5896C44.983 29.5862 45.4955 29.0871 45.4888 28.4276C45.4821 27.7699 44.9696 27.2907 44.2551 27.2857C43.743 27.2824 43.2309 27.2835 42.7193 27.2846L42.7189 27.2846C42.4634 27.2852 42.2081 27.2857 41.9529 27.2857L41.9512 27.2874C41.6954 27.2874 41.4397 27.287 41.1839 27.2866ZM33.7862 32.063V29.7341H33.7878C31.6943 29.1698 29.1734 30.1982 27.8679 32.1298C26.4789 34.1849 26.5557 36.8794 28.0583 38.8477C29.706 41.0046 32.322 41.4053 33.7678 40.9729V38.6574C31.3304 39.3368 29.3788 37.6657 29.1985 35.6724C29.1083 34.6941 29.3871 33.8126 30.0466 33.083C31.0599 31.9595 32.3337 31.679 33.7862 32.063ZM50.1304 21.1406L50.1687 21.1789C52.1992 23.2078 54.2199 25.2269 56.2473 27.2542H50.1304V21.1406ZM32.645 36.5071C33.266 36.5071 33.7919 35.9863 33.7969 35.3652L33.7986 35.3635C33.8036 34.7425 33.2877 34.2133 32.665 34.2033C32.0423 34.1933 31.5081 34.7058 31.4931 35.3268C31.4764 35.9612 32.0089 36.5071 32.645 36.5071Z" fill="white"/>
</svg>
