<svg width="18" height="16" viewBox="0 0 18 16" fill="none" xmlns="http://www.w3.org/2000/svg">
<path d="M3.7846 1.77849C3.79567 2.14319 3.69399 2.50278 3.4926 2.81118C3.29121 3.11959 2.99927 3.36277 2.65419 3.50956C2.30912 3.65635 1.92662 3.70007 1.55572 3.63511C1.18481 3.57015 0.842394 3.39947 0.572335 3.14494C0.302275 2.89042 0.116877 2.56364 0.0398954 2.20648C-0.0370862 1.84931 -0.00214457 1.47804 0.140243 1.14022C0.282631 0.802398 0.525979 0.513424 0.839107 0.310324C1.15223 0.107224 1.52088 -0.00075303 1.89781 0.000229727C2.14288 -0.00355685 2.38631 0.0395002 2.61416 0.126934C2.84201 0.214368 3.0498 0.34446 3.22562 0.509758C3.40144 0.675055 3.54184 0.872309 3.63878 1.09022C3.73571 1.30813 3.78727 1.54241 3.79051 1.77964L3.7846 1.77849ZM3.84138 4.87012H0.0654288V16H3.84138V4.87012ZM9.80695 4.87012H6.04993V16H9.7691V10.1602C9.7691 6.90602 14.2714 6.60373 14.2714 10.1602V16H18V8.95222C18 3.46744 11.3353 3.67126 9.7691 6.36556L9.80695 4.87012Z" fill="white"/>
</svg>
