<svg width="16" height="16" viewBox="0 0 16 16" fill="none" xmlns="http://www.w3.org/2000/svg">
<path d="M8 0C10.1714 0 10.4446 0.00800006 11.2971 0.0480001C11.9611 0.0618388 12.618 0.187803 13.24 0.420571C13.7741 0.620686 14.2579 0.93551 14.6571 1.34286C15.0638 1.74266 15.3786 2.22625 15.5794 2.76C15.8115 3.38215 15.9371 4.03897 15.9509 4.70286C15.9897 5.55543 16 5.82857 16 8C16 10.1714 15.992 10.4446 15.952 11.2971C15.9378 11.9611 15.8118 12.6179 15.5794 13.24C15.3742 13.7715 15.0601 14.2543 14.6572 14.6572C14.2543 15.0601 13.7715 15.3742 13.24 15.5794C12.6179 15.8119 11.9611 15.9379 11.2971 15.952C10.4446 15.9897 10.1714 16 8 16C5.82857 16 5.55543 15.992 4.70286 15.952C4.03891 15.9378 3.38211 15.8118 2.76 15.5794C2.22845 15.3742 1.74572 15.0601 1.34282 14.6572C0.939924 14.2543 0.625777 13.7715 0.420571 13.24C0.187718 12.618 0.0617512 11.9611 0.0480001 11.2971C0.0102858 10.4446 0 10.1714 0 8C0 5.82857 0.00800006 5.55543 0.0480001 4.70286C0.0617512 4.03886 0.187718 3.38198 0.420571 2.76C0.625777 2.22845 0.939924 1.74572 1.34282 1.34282C1.74572 0.939924 2.22845 0.625777 2.76 0.420571C3.38205 0.188109 4.03893 0.062528 4.70286 0.0491428C5.55543 0.0102857 5.82857 0 8 0ZM8 4C7.20888 4 6.43552 4.2346 5.77772 4.67412C5.11992 5.11365 4.60723 5.73836 4.30448 6.46927C4.00173 7.20017 3.92252 8.00444 4.07686 8.78036C4.2312 9.55629 4.61216 10.269 5.17157 10.8284C5.73098 11.3878 6.44371 11.7688 7.21964 11.9231C7.99556 12.0775 8.79983 11.9983 9.53073 11.6955C10.2616 11.3928 10.8864 10.8801 11.3259 10.2223C11.7654 9.56449 12 8.79113 12 8C12 6.93913 11.5786 5.92172 10.8284 5.17157C10.0783 4.42143 9.06087 4 8 4ZM13.2 3.8C13.2 3.60222 13.1414 3.40888 13.0315 3.24443C12.9216 3.07998 12.7654 2.95181 12.5827 2.87612C12.4 2.80043 12.1989 2.78063 12.0049 2.81922C11.8109 2.8578 11.6327 2.95304 11.4929 3.09289C11.353 3.23275 11.2578 3.41093 11.2192 3.60491C11.1806 3.79889 11.2004 3.99996 11.2761 4.18268C11.3518 4.36541 11.48 4.52159 11.6444 4.63147C11.8089 4.74135 12.0022 4.8 12.2 4.8C12.4652 4.8 12.7196 4.69464 12.9071 4.50711C13.0946 4.31957 13.2 4.06522 13.2 3.8ZM8 5.6C8.47468 5.6 8.93869 5.74076 9.33337 6.00447C9.72805 6.26819 10.0357 6.64302 10.2173 7.08156C10.399 7.5201 10.4465 8.00266 10.3539 8.46822C10.2613 8.93377 10.0327 9.36141 9.69706 9.69706C9.36141 10.0327 8.93377 10.2613 8.46822 10.3539C8.00266 10.4465 7.5201 10.399 7.08156 10.2173C6.64302 10.0357 6.26819 9.72805 6.00447 9.33337C5.74076 8.93869 5.6 8.47468 5.6 8C5.6 7.36348 5.85286 6.75303 6.30294 6.30294C6.75303 5.85286 7.36348 5.6 8 5.6Z" fill="white"/>
</svg>
