<svg width="20" height="16" viewBox="0 0 20 16" fill="none" xmlns="http://www.w3.org/2000/svg">
<path d="M19.9988 1.89975C19.2497 2.22557 18.4553 2.43949 17.6419 2.5344C18.499 2.03004 19.1405 1.23629 19.447 0.301042C18.6416 0.771663 17.7603 1.10303 16.8412 1.28078C16.2238 0.630704 15.4055 0.199508 14.5134 0.0542062C13.6213 -0.0910953 12.7054 0.057637 11.9081 0.477287C11.1108 0.896936 10.4767 1.564 10.1043 2.37479C9.73201 3.18558 9.6423 4.09469 9.84917 4.96082C8.21668 4.88038 6.61966 4.46281 5.16193 3.73524C3.7042 3.00767 2.4184 1.98641 1.38811 0.73782C0.862181 1.62792 0.701176 2.68191 0.937929 3.6848C1.17468 4.6877 1.79136 5.56394 2.66217 6.13481C2.01093 6.11471 1.37399 5.9418 0.804414 5.63046V5.68476C0.804554 6.61695 1.13235 7.5204 1.73221 8.24193C2.33207 8.96345 3.16708 9.45864 4.09565 9.64352C3.49101 9.80491 2.85699 9.82884 2.24157 9.7135C2.50339 10.5159 3.01372 11.2177 3.70109 11.7205C4.38845 12.2233 5.21843 12.502 6.0748 12.5176C5.2236 13.1754 4.24894 13.6618 3.20658 13.9487C2.16421 14.2357 1.07458 14.3176 0 14.1899C1.87627 15.3751 4.05977 16.0034 6.28939 15.9997C7.82554 16.0102 9.34848 15.7201 10.7697 15.1465C12.191 14.5729 13.4823 13.7271 14.5685 12.6583C15.6548 11.5895 16.5143 10.3189 17.0973 8.92045C17.6803 7.52199 17.975 6.02348 17.9644 4.51197C17.9644 4.33823 17.9644 4.16207 17.9522 3.99073C18.7556 3.41945 19.4491 2.71178 20 1.90095L19.9988 1.89975Z" fill="white"/>
</svg>
