<svg width="43" height="43" viewBox="0 0 43 43" fill="none" xmlns="http://www.w3.org/2000/svg">
<rect x="14.9758" y="22.8834" width="18.5812" height="12.9814" transform="rotate(-47.0019 14.9758 22.8834)" fill="white"/>
<path d="M35.6085 16.716L28.2057 9.81331C27.2627 8.93401 25.8167 8.9504 24.9257 9.90593C24.3734 10.4981 23.6532 11.9556 25.0198 13.23M20.5872 28.2588L10.9294 19.2534L20.5872 28.2588ZM35.6085 16.716C40.164 20.9639 39.1136 26.6571 35.0081 31.06C30.9025 35.463 28.3513 35.9157 19.4709 34.0226L14.8358 33.0454C13.278 32.734 12.4512 31.0497 13.136 29.5846C13.3589 29.1046 13.724 28.7048 14.1818 28.4392C14.6396 28.1737 15.168 28.0554 15.6953 28.1003L20.6248 28.2938" fill="white"/>
<path d="M25.0198 13.23C23.6532 11.9556 24.3734 10.4981 24.9257 9.90593C25.8167 8.9504 27.2627 8.93401 28.2057 9.81331L35.6085 16.716C40.164 20.9639 39.1136 26.6571 35.0081 31.06C30.9025 35.463 28.3513 35.9157 19.4709 34.0226L14.8358 33.0454C13.278 32.734 12.4512 31.0497 13.136 29.5846C13.3589 29.1046 13.724 28.7048 14.1818 28.4392C14.6396 28.1737 15.168 28.0554 15.6953 28.1003L20.6248 28.2938M20.5872 28.2588L10.9294 19.2534" stroke="black" stroke-width="2.24" stroke-linecap="round" stroke-linejoin="round"/>
<path d="M23.5429 18.2402L19.5568 14.5234C19.1037 14.1009 18.837 13.5158 18.8154 12.8967C18.7938 12.2775 19.0189 11.6752 19.4414 11.2221C19.8639 10.769 20.449 10.5023 21.0682 10.4807C21.6873 10.4591 22.2896 10.6843 22.7427 11.1067L26.7288 14.8236M20.357 21.6569L15.232 16.8781C14.779 16.4556 14.5123 15.8705 14.4906 15.2514C14.469 14.6322 14.6942 14.0299 15.1167 13.5768C15.5391 13.1237 16.1243 12.8571 16.7434 12.8354C17.3625 12.8138 17.9648 13.039 18.4179 13.4614L23.5429 18.2402M17.1712 25.0736L7.49062 16.0469C7.03754 15.6244 6.77085 15.0393 6.74921 14.4202C6.72757 13.8011 6.95275 13.1987 7.37523 12.7456C7.7977 12.2926 8.38285 12.0259 9.00196 12.0042C9.62107 11.9826 10.2234 12.2078 10.6765 12.6303L20.357 21.6569" fill="white"/>
<path d="M26.7288 14.8236L22.7427 11.1067C22.2896 10.6843 21.6873 10.4591 21.0682 10.4807C20.449 10.5023 19.8639 10.769 19.4414 11.2221C19.0189 11.6752 18.7938 12.2775 18.8154 12.8967C18.837 13.5158 19.1037 14.1009 19.5568 14.5234L23.5429 18.2402L18.4179 13.4614C17.9648 13.039 17.3625 12.8138 16.7434 12.8354C16.1243 12.8571 15.5391 13.1237 15.1167 13.5768C14.6942 14.0299 14.469 14.6322 14.4906 15.2514C14.5123 15.8705 14.779 16.4556 15.232 16.8781L20.357 21.6569L10.6765 12.6303C10.2234 12.2078 9.62107 11.9826 9.00196 12.0042C8.38285 12.0259 7.7977 12.2926 7.37523 12.7456C6.95275 13.1987 6.72757 13.8011 6.74921 14.4202C6.77085 15.0393 7.03754 15.6244 7.49062 16.0469L17.1712 25.0736" stroke="black" stroke-width="2.24" stroke-linecap="round" stroke-linejoin="round"/>
</svg>
