<svg width="17" height="17" viewBox="0 0 17 17" fill="none" xmlns="http://www.w3.org/2000/svg">
<path d="M16.9263 7.39165H9.60748V0.0719685C8.8714 -0.0239895 8.12599 -0.0239895 7.38992 0.0719685V7.39165H0.0719685C-0.0239895 8.12773 -0.0239895 8.87314 0.0719685 9.60921H7.39165V16.928C8.12773 17.024 8.87314 17.024 9.60921 16.928V9.60748H16.928C17.024 8.8714 17.024 8.12599 16.928 7.38992L16.9263 7.39165Z" fill="#D80027"/>
<path d="M10.7163 10.7168L14.5088 14.5093C14.6827 14.3354 14.8494 14.1536 15.0088 13.964L11.7616 10.7168H10.7181H10.7163Z" fill="#D80027"/>
<path d="M6.28221 10.7168L2.48975 14.5093C2.66367 14.6832 2.84542 14.8496 3.035 15.0084L6.28221 11.7612V10.7168Z" fill="#D80027"/>
<path d="M6.28176 6.2827L2.48843 2.49023C2.3145 2.66416 2.14811 2.84591 1.98926 3.03549L5.23646 6.2827H6.28002H6.28176Z" fill="#D80027"/>
<path d="M10.7163 6.28187L14.5088 2.4894C14.3349 2.31547 14.1531 2.14909 13.9635 1.99023L10.7163 5.23744V6.28187Z" fill="#D80027"/>
</svg>
